<?xml version="1.0" encoding="UTF-8" standalone="no"?>
<!-- Created with Inkscape (http://www.inkscape.org/) -->

<svg
   width="12.004307mm"
   height="7.3486404mm"
   viewBox="0 0 12.004307 7.3486404"
   version="1.1"
   id="svg5"
   sodipodi:docname="2023-CV.svg"
   inkscape:version="1.2.1 (9c6d41e, 2022-07-14)"
   xml:space="preserve"
   xmlns:inkscape="http://www.inkscape.org/namespaces/inkscape"
   xmlns:sodipodi="http://sodipodi.sourceforge.net/DTD/sodipodi-0.dtd"
   xmlns="http://www.w3.org/2000/svg"
   xmlns:svg="http://www.w3.org/2000/svg"><sodipodi:namedview
     id="namedview7"
     pagecolor="#ffffff"
     bordercolor="#000000"
     borderopacity="0.25"
     inkscape:showpageshadow="2"
     inkscape:pageopacity="0.0"
     inkscape:pagecheckerboard="0"
     inkscape:deskcolor="#d1d1d1"
     inkscape:document-units="mm"
     showgrid="false"
     inkscape:zoom="0.69383979"
     inkscape:cx="658.65349"
     inkscape:cy="502.27733"
     inkscape:window-width="2560"
     inkscape:window-height="1387"
     inkscape:window-x="1512"
     inkscape:window-y="25"
     inkscape:window-maximized="0"
     inkscape:current-layer="layer1" /><defs
     id="defs2" /><g
     inkscape:label="Layer 1"
     inkscape:groupmode="layer"
     id="layer1"
     transform="translate(21.65402,-48.992052)"><path
       id="path11972"
       style="fill:#000000;fill-opacity:1;stroke-width:0.0159496"
       d="m -18.133824,48.992055 c -0.307149,6.61e-4 -0.615666,0.04244 -0.917256,0.127124 -0.10806,0.03034 -0.244721,0.07413 -0.303341,0.09715 -0.18044,0.07083 -0.434364,0.197154 -0.443384,0.220658 -0.005,0.01227 0.0064,0.114387 0.02429,0.226859 0.0961,0.604721 0.124479,1.101584 0.09922,1.736845 -0.0104,0.262392 -0.02549,0.548931 -0.03359,0.636654 -0.0117,0.128302 -0.008,0.212868 0.01705,0.430981 0.0704,0.602369 0.154558,0.988962 0.284737,1.306381 0.0357,0.08698 0.06511,0.170446 0.06511,0.185518 0,0.02199 0.01974,0.02923 0.09973,0.03669 0.1714,0.01598 0.786696,0.03073 0.821656,0.01964 0.0294,-0.0093 0.03134,-0.01655 0.01654,-0.05891 -0.009,-0.02638 -0.01352,-0.0897 -0.0098,-0.141076 0.009,-0.121916 0.06199,-0.204232 0.166399,-0.256832 0.0427,-0.02151 0.0787,-0.03876 0.0801,-0.03876 0.001,-8e-6 0.01162,-0.100438 0.02222,-0.223242 0.0215,-0.247863 -4.16e-4,-0.985877 -0.03256,-1.096057 -0.0287,-0.09862 -0.0861,-0.15167 -0.204639,-0.189136 -0.12017,-0.03798 -0.334357,-0.04513 -0.479557,-0.01602 -0.19236,0.03857 -0.331706,0.0135 -0.398425,-0.07131 -0.0624,-0.07932 -0.07908,-0.188242 -0.10077,-0.645439 -0.0279,-0.586769 -0.02466,-0.726026 0.02584,-1.020609 0.0454,-0.264804 0.06918,-0.31644 0.134875,-0.295589 0.0647,0.02054 0.066,0.05271 0.0155,0.352433 -0.0419,0.248872 -0.04676,0.31087 -0.03876,0.47749 0.005,0.105267 0.01664,0.352977 0.02584,0.550354 0.009,0.197376 0.02376,0.38581 0.03256,0.419096 0.0251,0.095 0.05791,0.102542 0.316777,0.06976 0.240519,-0.03045 0.326642,-0.02619 0.507462,0.02532 0.21815,0.06215 0.304787,0.182944 0.337447,0.470255 0.0214,0.188089 0.02805,0.832007 0.01085,1.044898 -0.0115,0.142248 -0.0098,0.171565 0.0083,0.171565 0.043,0 0.141586,0.08185 0.173116,0.143661 0.0213,0.04172 0.03204,0.09385 0.03204,0.15658 v 0.09405 l 0.09147,0.04082 c 0.0504,0.02233 0.105967,0.04434 0.123507,0.04909 0.0175,0.0048 0.10399,0.0061 0.19172,0.0031 0.253539,-0.0086 0.781147,-0.139945 1.255737,-0.312642 0.19192,-0.06983 0.337301,-0.131158 0.360701,-0.151929 0.003,-0.0027 -0.03083,-0.07177 -0.07493,-0.153479 -0.0441,-0.0817 -0.134895,-0.273849 -0.202055,-0.427364 -0.15425,-0.352598 -0.207572,-0.452537 -0.271302,-0.508496 -0.0698,-0.06132 -0.263756,-0.107523 -0.542085,-0.128674 -0.12282,-0.0093 -0.314551,-0.02372 -0.426331,-0.03204 -0.17538,-0.01306 -0.222454,-0.02244 -0.341064,-0.0708 -0.16065,-0.0655 -0.203969,-0.09189 -0.238229,-0.144178 -0.0541,-0.08261 -0.01404,-0.285107 0.07286,-0.368453 0.0387,-0.03704 0.06529,-0.04656 0.143144,-0.05219 0.10746,-0.0078 0.138939,-0.03059 0.223759,-0.162781 l 0.04909,-0.07751 -0.03256,-0.06408 c -0.0398,-0.07796 -0.04293,-0.191612 -0.0072,-0.267167 0.0143,-0.03013 0.06369,-0.08691 0.109554,-0.126091 0.0973,-0.08314 0.157975,-0.09362 0.186035,-0.03204 0.0218,0.04777 -0.005,0.0966 -0.0894,0.160714 -0.0857,0.06538 -0.09571,0.123791 -0.04031,0.230993 0.0317,0.06133 0.175183,0.208506 0.175183,0.179834 0,-0.0098 0.09868,-0.121019 0.219625,-0.24753 0.25324,-0.264837 0.338346,-0.373078 0.439766,-0.559139 0.0719,-0.131852 0.204108,-0.424907 0.289388,-0.641304 0.0242,-0.06141 0.07231,-0.154751 0.10697,-0.207223 l 0.06305,-0.09509 -0.04496,-0.03721 c -0.0248,-0.02038 -0.128814,-0.09343 -0.230993,-0.162264 -0.570694,-0.384437 -1.239196,-0.583128 -1.915129,-0.581876 z m 6.253365,0.04031 c -0.0074,3.45e-4 -0.01362,0.001 -0.01912,0.0021 -0.11058,0.02114 -0.156391,0.17173 -0.07648,0.251665 0.0315,0.0315 0.07436,0.04603 0.208773,0.07028 0.547059,0.09865 0.979391,0.328373 1.382861,0.734839 0.15954,0.160727 0.179968,0.176216 0.233577,0.176216 0.0806,0 0.1519292,-0.07039 0.1519292,-0.149861 0,-0.04667 -0.017466,-0.07674 -0.1012862,-0.1726 -0.285979,-0.327198 -0.702843,-0.611595 -1.111043,-0.75861 -0.22656,-0.0816 -0.516555,-0.149548 -0.644405,-0.153996 -0.0091,-3.16e-4 -0.01742,-3.44e-4 -0.02481,0 z m -0.675927,0.0078 c -0.066,-7.24e-4 -0.162219,0.0078 -0.257349,0.02429 -0.28388,0.04904 -0.598882,0.173472 -0.857312,0.338997 -0.0869,0.05564 -0.09137,0.06124 -0.08217,0.110588 0.006,0.03148 0.0023,0.06159 -0.0098,0.07596 -0.024,0.0289 -0.09771,0.03096 -0.125574,0.0036 -0.0164,-0.01605 -0.05029,0.01149 -0.174666,0.140044 -0.16961,0.175303 -0.300066,0.350079 -0.403076,0.541052 -0.0579,0.107438 -0.06376,0.126265 -0.04186,0.138493 0.0521,0.02914 0.483508,0.416247 0.517798,0.464571 0.0196,0.02768 0.04654,0.08825 0.05994,0.134359 0.0222,0.07648 0.03287,0.0885 0.117306,0.137976 0.15186,0.089 0.199172,0.09916 0.274402,0.05994 0.100359,-0.05231 0.170037,-0.05703 0.268717,-0.01809 0.11168,0.04406 0.258055,0.147023 0.293005,0.206188 0.0405,0.06863 0.03481,0.177013 -0.01499,0.282154 -0.0486,0.102606 -0.09496,0.13375 -0.157096,0.10542 -0.0675,-0.03077 -0.08014,-0.08281 -0.04134,-0.170532 0.0185,-0.0417 0.03359,-0.08473 0.03359,-0.0956 0,-0.02428 -0.09952,-0.09195 -0.175183,-0.118856 -0.0488,-0.01736 -0.06593,-0.01522 -0.133325,0.01395 -0.10442,0.04519 -0.208904,0.04295 -0.305924,-0.0062 -0.0427,-0.02163 -0.08085,-0.03597 -0.08475,-0.03204 -0.0124,0.01244 0.02885,0.230479 0.06305,0.33228 0.086,0.256111 0.279071,0.454393 0.51573,0.529167 0.13319,0.04208 0.391127,0.02471 0.738457,-0.04961 l 0.115755,-0.02481 v -1.515153 c 0,-1.524256 -0.0011,-1.561433 -0.05426,-1.596801 -0.0109,-0.0073 -0.03946,-0.01094 -0.07906,-0.01137 z m -7.468795,0.517798 c -0.0319,0.0011 -0.325269,0.242077 -0.484208,0.397908 l -0.187069,0.183452 0.03152,0.574642 c 0.0175,0.315802 0.04271,0.70648 0.05581,0.86868 0.0379,0.467095 0.03194,0.534542 -0.05116,0.609782 -0.038,0.03438 -0.172756,0.06747 -0.383955,0.09353 l -0.163815,0.02015 0.0078,0.08888 c 0.01,0.106095 0.03254,0.88917 0.02894,0.986503 l -0.0021,0.06821 0.200505,0.163297 c 0.11019,0.08979 0.240395,0.189786 0.289905,0.222209 0.0495,0.03242 0.09205,0.05896 0.09405,0.05943 0.002,4.75e-4 0.01506,-0.02213 0.02946,-0.05064 0.0144,-0.02851 0.04651,-0.07342 0.07131,-0.09974 0.0659,-0.06969 0.194934,-0.355737 0.251664,-0.558106 0.29308,-1.045376 0.302074,-1.085147 0.320394,-1.363741 0.0446,-0.679009 0.03806,-1.204074 -0.02274,-1.733744 -0.0302,-0.263502 -0.07358,-0.531169 -0.08578,-0.530717 z m 6.322611,0.186552 h 5.17e-4 c 0.04222,-4.81e-4 0.07196,0.03977 0.119889,0.153479 0.0493,0.11714 0.05137,0.135133 0.01757,0.168982 -0.059,0.059 -0.106129,0.02398 -0.174149,-0.129708 -0.0514,-0.116047 -0.04593,-0.174233 0.01757,-0.19017 0.0068,-0.0017 0.01267,-0.0024 0.0186,-0.0026 z m -2.114599,0.147794 c -0.0331,0 -0.104923,0.129051 -0.192753,0.346232 -0.0525,0.129808 -0.133968,0.316273 -0.180868,0.414445 l -0.08527,0.178284 0.05943,0.779281 0.05891,0.778763 0.05839,0.09508 c 0.0321,0.0524 0.12639,0.247259 0.20929,0.433049 0.0829,0.185788 0.180254,0.38903 0.216524,0.451135 0.0764,0.130891 0.07634,0.130521 0.206189,-0.0021 0.0965,-0.09855 0.19589,-0.239866 0.56224,-0.799435 l 0.273368,-0.417545 -0.01964,-0.127641 c -0.0823,-0.539481 -0.32301,-1.11244 -0.666109,-1.584399 -0.11215,-0.154277 -0.470421,-0.545187 -0.499711,-0.545187 z m 2.326989,0.327629 c 0.0361,0 0.05275,0.01714 0.108004,0.110071 0.0722,0.121541 0.08274,0.182766 0.03514,0.208256 -0.0611,0.03269 -0.08997,0.01223 -0.167948,-0.118339 -0.08,-0.134038 -0.0717,-0.199988 0.0248,-0.199988 z m -7.35769,0.105937 c -0.009,-0.0095 -0.188269,0.246319 -0.274919,0.393257 -0.181409,0.307625 -0.313876,0.62385 -0.404626,0.967383 -0.0439,0.16616 -0.0448,0.17644 -0.0186,0.202055 0.0152,0.01486 0.0854,0.07877 0.155546,0.141593 l 0.127124,0.114205 0.10387,-0.0098 c 0.41849,-0.03918 0.414575,-0.03743 0.414445,-0.173116 -5e-5,-0.05452 -0.01004,-0.232004 -0.02274,-0.394292 -0.0126,-0.162286 -0.03469,-0.507062 -0.04909,-0.765844 -0.0144,-0.258783 -0.02831,-0.472733 -0.03101,-0.475423 z m 2.050004,0.236161 h 0.222726 0.222725 v 0.183451 0.183451 h 0.03979 c 0.0397,0 0.04031,4.24e-4 0.04031,0.151412 v 0.151929 H -18.4599 c -0.10308,9.1e-5 -0.213553,0.0045 -0.245463,0.0098 -0.0828,0.01369 -0.116614,-0.0261 -0.141594,-0.165882 -0.0258,-0.144239 -0.01398,-0.39206 0.02222,-0.461987 z m 4.223515,0.07131 c -0.008,-5.56e-4 0.0062,0.03287 0.05064,0.12144 0.18771,0.375427 0.312093,0.756672 0.386023,1.182873 l 0.03617,0.210324 0.09353,0.08578 c 0.0514,0.04718 0.193809,0.176244 0.316259,0.286805 l 0.222726,0.201021 0.502811,0.14366 c 0.27669,0.07899 0.512006,0.144188 0.522966,0.144694 0.0153,7.06e-4 0.02015,-0.07138 0.02015,-0.310058 0,-0.202871 -0.0061,-0.311092 -0.01654,-0.311092 -0.009,0 -0.114778,0.01869 -0.235127,0.04134 -0.24619,0.04635 -0.511332,0.0566 -0.625802,0.02429 -0.27344,-0.07716 -0.498122,-0.26739 -0.625802,-0.529684 -0.0787,-0.161589 -0.105796,-0.262322 -0.155546,-0.572575 -0.0363,-0.226549 -0.0528,-0.302322 -0.0739,-0.34003 -0.008,-0.0145 -0.09398,-0.09541 -0.190169,-0.179834 -0.0962,-0.08442 -0.19164,-0.168814 -0.21239,-0.187586 -0.008,-0.007 -0.01322,-0.01119 -0.01602,-0.01137 z m 1.348238,0.01757 c 0.0208,8.82e-4 0.04143,0.0089 0.05323,0.02325 0.0108,0.01304 0.06194,0.03899 0.113688,0.05788 0.0992,0.03616 0.132915,0.08452 0.09819,0.140043 -0.009,0.01399 -0.03651,0.02696 -0.06201,0.02894 -0.0582,0.0046 -0.190248,-0.04649 -0.239778,-0.09302 -0.0405,-0.03808 -0.0499,-0.107246 -0.0186,-0.138493 0.0132,-0.01322 0.03449,-0.01948 0.05529,-0.0186 z m 0.448035,0.208773 h 5.16e-4 c 0.07317,0.0026 0.244803,0.08079 0.26045,0.121956 0.0147,0.03866 -0.0054,0.09922 -0.03307,0.09922 -0.008,0 -0.02344,0.0031 -0.03514,0.0067 -0.029,0.009 -0.205533,-0.06535 -0.243913,-0.102836 -0.0416,-0.0406 -0.01826,-0.116493 0.03824,-0.12454 0.0038,-5.35e-4 0.008,-6.38e-4 0.01292,-5.17e-4 z m -3.645256,0.216524 c -0.006,0.0023 -0.10865,0.106927 -0.22841,0.232028 -0.234669,0.245123 -0.379177,0.429942 -0.533817,0.681612 l -0.09819,0.159163 0.139526,0.01137 c 0.0768,0.0062 0.233206,0.01871 0.347266,0.02791 0.114069,0.0092 0.257463,0.03019 0.318843,0.04651 0.16746,0.04455 0.157451,0.04986 0.146761,-0.07338 -0.005,-0.05921 -0.02548,-0.328555 -0.04547,-0.598413 -0.0199,-0.269856 -0.04091,-0.489093 -0.04651,-0.486792 z m 4.398698,0.3514 v 0.375688 0.375687 l 0.05219,0.01085 c 0.0743,0.01567 0.203455,0.08243 0.256315,0.132292 0.0962,0.09073 0.142082,0.216977 0.186552,0.513147 0.0215,0.142984 0.04071,0.224164 0.07441,0.315226 l 0.02532,0.0677 h 0.203088 0.202572 l 0.04392,-0.120406 c 0.0505,-0.138533 0.09362,-0.179552 0.234094,-0.223242 0.09,-0.02799 0.09043,-0.02832 0.06563,-0.06615 -0.0197,-0.03012 -0.02092,-0.04644 -0.0067,-0.07751 0.029,-0.06356 0.08932,-0.05004 0.266134,0.05839 0.0873,0.05353 0.181569,0.111279 0.209289,0.128158 l 0.05064,0.03049 0.06976,-0.06046 c 0.0384,-0.03312 0.093327,-0.07939 0.1219568,-0.103353 l 0.052193,-0.04392 -0.063045,-0.108003 c -0.4091498,-0.700567 -1.0905458,-1.12586 -1.9125448,-1.193726 z m 0.429948,0.130225 h 5.17e-4 c 0.04649,-3.68e-4 0.1008,0.05844 0.15813,0.172599 0.0413,0.08217 0.04217,0.103589 0.0052,0.137459 -0.059,0.0534 -0.08223,0.0387 -0.172082,-0.110587 -0.0569,-0.09452 -0.06724,-0.146767 -0.03514,-0.178801 0.01345,-0.01346 0.0281,-0.02026 0.04341,-0.02067 z m -5.655986,0.02687 c -0.009,-0.0015 -0.01454,0.0065 -0.02584,0.02222 -0.13686,0.189424 -0.192588,0.231511 -0.306958,0.231511 -0.0738,0 -0.08455,0.0041 -0.104386,0.04341 -0.0121,0.02412 -0.02686,0.06344 -0.03256,0.08733 -0.009,0.03895 -0.0029,0.04733 0.05684,0.07803 0.0369,0.01883 0.09282,0.04329 0.124023,0.05478 0.0312,0.01149 0.06365,0.02148 0.07235,0.0217 0.009,2.26e-4 0.07013,-0.08721 0.135909,-0.193787 0.0658,-0.106579 0.130164,-0.210278 0.143144,-0.230477 0.0219,-0.03412 0.02011,-0.03983 -0.02119,-0.08061 -0.0219,-0.02163 -0.03284,-0.03258 -0.04134,-0.03411 z m 5.899382,0.42323 c 0.0306,0.0016 0.06521,0.02988 0.117822,0.08992 0.0969,0.11059 0.106605,0.134013 0.07597,0.177767 -0.041,0.05861 -0.09043,0.04189 -0.187586,-0.06305 -0.0952,-0.102837 -0.106574,-0.138135 -0.05995,-0.180351 0.0187,-0.01691 0.03544,-0.02527 0.05374,-0.02429 z m -10.251054,0.07028 c -0.002,9e-5 -0.0037,9.7e-4 -0.0047,0.0026 -0.0202,0.03765 -0.04723,0.368884 -0.04703,0.578776 2.2e-4,0.292742 0.0285,0.532934 0.0987,0.841809 l 0.03152,0.139527 0.0615,-0.04858 c 0.0339,-0.02681 0.08082,-0.07176 0.104387,-0.09974 0.0409,-0.04861 0.04279,-0.0566 0.03359,-0.1788 -0.005,-0.07035 -0.01457,-0.321771 -0.02067,-0.558622 -0.006,-0.236852 -0.01547,-0.446072 -0.02067,-0.465088 -0.0128,-0.04701 -0.201568,-0.21291 -0.236678,-0.211874 z m 10.589018,0.289388 c 0.0042,-3.91e-4 0.0085,-1e-4 0.01292,5.17e-4 0.0292,0.0041 0.06528,0.03097 0.129708,0.09043 0.0944,0.08711 0.110342,0.131006 0.06511,0.176217 -0.0432,0.04316 -0.0859,0.02799 -0.183451,-0.06511 -0.10211,-0.0974 -0.118255,-0.146271 -0.0615,-0.186035 0.01305,-0.0092 0.02473,-0.01485 0.03721,-0.01602 z m -3.072164,0.01602 0.0072,0.14211 c 0.004,0.07816 7.98e-4,0.246047 -0.0062,0.373104 l -0.0124,0.230994 0.05943,0.0615 c 0.0783,0.08091 0.304142,0.259076 0.434082,0.342098 0.21997,0.140554 0.525347,0.255452 0.813387,0.306441 0.0921,0.01631 0.212337,0.0303 0.267167,0.03101 l 0.09974,0.0016 v -0.342098 c 0,-0.311774 -0.002,-0.34281 -0.02791,-0.350366 -0.0153,-0.0046 -0.232648,-0.06591 -0.482657,-0.136426 -0.25001,-0.07052 -0.491409,-0.138929 -0.536919,-0.152445 -0.0701,-0.02081 -0.123666,-0.06182 -0.348815,-0.266134 z m 2.060856,0.01757 v 0.358118 0.358117 l 0.171566,0.03927 c 0.0943,0.02167 0.173743,0.03363 0.176733,0.02636 0.003,-0.0073 -0.0019,-0.03599 -0.01188,-0.06356 -0.01,-0.02758 -0.02846,-0.122369 -0.04186,-0.210839 -0.0317,-0.208954 -0.05423,-0.310164 -0.08113,-0.363286 -0.0266,-0.0526 -0.110229,-0.118536 -0.169499,-0.133325 z m -2.587439,0.0057 -0.287321,0.43615 c -0.15791,0.239882 -0.289052,0.441793 -0.291972,0.449068 -0.003,0.0073 -0.0024,0.01344 0.0016,0.01344 0.0204,0 0.54019,-0.14073 0.54777,-0.148312 0.0209,-0.02091 0.03831,-0.277862 0.03411,-0.504362 z m -5.3821,0.459921 -0.07235,0.252697 c -0.0397,0.139001 -0.09314,0.303022 -0.118856,0.364319 -0.0385,0.09155 -0.04225,0.109856 -0.02015,0.101286 0.0148,-0.0057 0.05986,-0.0148 0.100252,-0.01964 l 0.0739,-0.0088 0.01034,-0.19327 c 0.006,-0.106387 0.0142,-0.261861 0.0186,-0.345198 z m 10.1414995,0.03307 c -0.006,3.62e-4 -0.042649,0.02876 -0.081649,0.06304 -0.067697,0.05946 -0.069724,0.06391 -0.043925,0.0925 0.0403,0.04457 0.035065,0.112097 -0.010335,0.132808 -0.0431,0.01963 -0.063306,0.01063 -0.3250445,-0.141593 l -0.163815,-0.09508 -0.147277,0.05478 c -0.0811,0.03022 -0.155772,0.06368 -0.165882,0.0739 -0.0101,0.01022 -0.0406,0.07215 -0.0677,0.137976 -0.0278,0.06752 -0.06433,0.129215 -0.08423,0.141594 -0.0214,0.01338 -0.102503,0.02501 -0.207223,0.02997 -0.16492,0.0078 -0.170702,0.0096 -0.154512,0.03979 0.0309,0.05771 0.196032,0.203367 0.275952,0.243396 0.10104,0.0506 0.175259,0.05193 0.206189,0.0036 0.0126,-0.01974 0.03888,-0.110979 0.05788,-0.203088 0.0705,-0.341628 0.14976,-0.418806 0.33383,-0.324011 0.23112,0.119034 0.257461,0.31884 0.0925,0.706933 -0.27497,0.646984 -0.226838,0.937939 0.202571,1.219047 0.061,0.03993 0.118808,0.07286 0.128158,0.07286 0.0465,0 0.2111192,-0.380212 0.2780192,-0.641821 0.0847,-0.331129 0.103259,-0.729642 0.048059,-1.030428 -0.0158,-0.08611 -0.024661,-0.10317 -0.060461,-0.116789 -0.0615,-0.02339 -0.097668,-0.06143 -0.097668,-0.102836 0,-0.0373 0.058066,-0.09137 0.082166,-0.07648 0.007,0.0045 0.013436,0.0044 0.013436,0 0,-0.02338 -0.1001473,-0.280665 -0.1090373,-0.280086 z m -9.9141235,0.08578 c -0.01023,0.0034 -0.0198,0.08213 -0.02739,0.232028 -0.006,0.11404 -0.01474,0.236857 -0.01964,0.272851 l -0.0088,0.06563 0.09302,0.03204 c 0.11817,0.04057 0.122498,0.04094 0.112138,0.01395 -0.021,-0.05483 -0.122372,-0.47768 -0.132292,-0.552421 -0.005,-0.03932 -0.01,-0.06031 -0.01499,-0.06356 -6.87e-4,-4.43e-4 -0.0014,-7.44e-4 -0.0021,-5.17e-4 z m 7.761283,0.301791 c -0.01746,0.007 -0.01912,0.07768 -0.01912,0.450102 v 0.457853 l 0.387057,0.882633 c 0.212729,0.485513 0.391858,0.881051 0.397908,0.879016 0.006,-0.002 0.09757,-0.08036 0.203605,-0.174666 0.10601,-0.0943 0.201637,-0.171566 0.212907,-0.171566 0.0324,0 0.06468,0.03231 0.137976,0.13901 l 0.06821,0.09922 0.04961,-0.03514 c 0.1547,-0.110155 0.484321,-0.473321 0.442351,-0.487309 -0.0617,-0.02055 -0.312019,-0.206074 -0.383439,-0.284221 -0.27125,-0.296791 -0.279829,-0.651274 -0.03049,-1.246952 0.10019,-0.239391 0.128655,-0.368209 0.09508,-0.430981 -0.024,-0.04489 -0.07436,-0.04424 -0.104386,0.0016 -0.013,0.01991 -0.03391,0.104425 -0.04651,0.187585 -0.0381,0.252104 -0.08536,0.331121 -0.220142,0.36742 -0.1214,0.03269 -0.34096,-0.05216 -0.49506,-0.190686 -0.0845,-0.07593 -0.200129,-0.219094 -0.241329,-0.299207 -0.021,-0.04079 -0.03895,-0.05274 -0.09405,-0.0615 -0.0613,-0.0097 -0.279893,-0.06062 -0.350883,-0.08165 -0.0028,-9.14e-4 -0.006,-0.0012 -0.0088,-5.17e-4 z m -2.664437,0.06563 c -0.0013,-1.27e-4 -0.004,3.84e-4 -0.0062,5.17e-4 -0.03513,0.0028 -0.183538,0.03633 -0.360701,0.08216 -0.32792,0.08484 -0.378279,0.10248 -0.450619,0.156063 -0.0448,0.03318 -0.104815,0.07363 -0.133325,0.08992 -0.0285,0.01629 -0.05219,0.04064 -0.05219,0.05426 0,0.05305 0.08187,0.141039 0.190686,0.205672 0.11551,0.06862 0.196204,0.153579 0.357084,0.374655 l 0.0801,0.11007 0.06098,-0.121439 c 0.11688,-0.232292 0.219103,-0.519348 0.283703,-0.796851 0.018,-0.0771 0.03256,-0.146342 0.03256,-0.153996 0,-4.79e-4 -6.93e-4,-8.95e-4 -0.0021,-10e-4 z m -6.570658,0.250631 -0.05891,0.05581 c -0.0325,0.03074 -0.08567,0.07551 -0.117822,0.09922 l -0.0584,0.04289 0.04754,0.130742 c 0.14092,0.389317 0.366017,0.78008 0.636137,1.103808 0.144589,0.173285 0.419747,0.435299 0.586527,0.558623 0.0756,0.05587 0.139727,0.09953 0.142627,0.09663 0.009,-0.0089 -0.118716,-0.459666 -0.205155,-0.723986 -0.12033,-0.36794 -0.213713,-0.612465 -0.259933,-0.680579 -0.0364,-0.05361 -0.07248,-0.147677 -0.07338,-0.19172 -1.8e-4,-0.0088 -0.06289,-0.05682 -0.139527,-0.10697 -0.0766,-0.05016 -0.196987,-0.139462 -0.267167,-0.19792 -0.0702,-0.05846 -0.150904,-0.124104 -0.179834,-0.146245 z m 3.142961,0.08475 c -0.14813,0 -0.217111,0.178735 -0.110071,0.285771 0.12521,0.125213 0.327284,-0.0097 0.270784,-0.180868 -0.0229,-0.06939 -0.07743,-0.104903 -0.160713,-0.104903 z m -1.965255,0.03307 c -0.0488,3.62e-4 -0.199109,0.05343 -0.258899,0.09457 -0.0806,0.05545 -0.119889,0.129908 -0.119889,0.22841 0,0.09148 0.01638,0.134803 0.07338,0.191719 0.0587,0.05859 0.122652,0.09142 0.221692,0.114205 l 0.0801,0.01809 0.01344,-0.316777 c 0.008,-0.174358 0.0091,-0.321689 0.0041,-0.327112 -0.002,-0.0023 -0.0069,-0.0032 -0.01395,-0.0031 z m 0.248047,0.01292 -0.01033,0.08475 c -0.006,0.04647 -0.01024,0.186604 -0.01034,0.311609 -1.4e-4,0.254295 -0.0039,0.247194 0.115239,0.201022 0.332709,-0.128621 0.303451,-0.511386 -0.04496,-0.586528 z m 3.983219,0.05064 c -0.005,5.38e-4 -0.0422,0.01646 -0.0832,0.03566 -0.0543,0.02544 -0.132811,0.09809 -0.290421,0.2682 -0.32267,0.348253 -0.532455,0.523712 -0.869715,0.727604 l -0.05426,0.03307 0.165881,0.166399 c 0.18645,0.18672 0.372703,0.317528 0.684713,0.481107 0.10965,0.05749 0.207004,0.104722 0.216524,0.104903 0.01,1.81e-4 0.08486,-0.05607 0.167432,-0.125057 0.2473,-0.206563 0.474523,-0.461068 0.667143,-0.747758 l 0.0987,-0.147278 -0.07545,-0.108003 c -0.16715,-0.237176 -0.259487,-0.336509 -0.372587,-0.40256 -0.11672,-0.06817 -0.196189,-0.151047 -0.226859,-0.235644 -0.0103,-0.02851 -0.02259,-0.05118 -0.02739,-0.05064 z m -0.47749,0.176217 -0.14056,0.03927 c -0.344669,0.09735 -0.641697,0.168317 -0.797367,0.190169 -0.20262,0.02844 -0.319131,0.01486 -0.49506,-0.05839 -0.10753,-0.04476 -0.119781,-0.04678 -0.145211,-0.02377 -0.0796,0.07204 -0.212554,0.09183 -0.321944,0.04806 -0.0607,-0.0243 -0.06872,-0.02396 -0.127641,0.0026 -0.0578,0.02607 -0.102158,0.02748 -0.533818,0.01705 l -0.470255,-0.01137 -0.01964,0.04496 c -0.0107,0.02465 -0.03518,0.06954 -0.05478,0.100252 -0.1053,0.165264 -0.238792,0.66929 -0.341582,1.291911 -0.0433,0.262297 -0.04429,0.25597 0.04651,0.306958 0.24922,0.139976 0.667804,0.281138 1.007174,0.339514 0.0658,0.01132 0.142919,0.02132 0.171049,0.02222 l 0.05116,0.0016 0.04857,-0.163815 c 0.0586,-0.195851 0.103441,-0.294358 0.215491,-0.474389 0.0464,-0.07456 0.115066,-0.18949 0.152446,-0.255282 0.0913,-0.160741 0.301667,-0.368566 0.461987,-0.456303 0.0658,-0.03598 0.201944,-0.110535 0.302824,-0.165881 0.373509,-0.204916 0.691078,-0.449444 0.907438,-0.699182 z m -3.342948,0.524515 c -0.0124,0 -0.18858,0.04749 -0.19172,0.05168 -0.002,0.0023 6.18e-4,0.151414 0.0052,0.331246 l 0.0083,0.326595 0.03462,-0.159164 c 0.0333,-0.152221 0.07537,-0.309524 0.126607,-0.474389 0.0129,-0.04167 0.02065,-0.07596 0.01705,-0.07596 z m -0.61495,0.0021 c -0.004,-2.26e-4 -0.0062,3.34e-4 -0.0062,10e-4 -0.002,0.0028 0.04723,0.16033 0.109554,0.350366 0.0623,0.190036 0.113171,0.344565 0.113171,0.343132 0,-0.0014 -0.0022,-0.147962 -0.0052,-0.325562 l -0.0047,-0.322978 -0.04341,-0.0088 c -0.0236,-0.0048 -0.07008,-0.01634 -0.10387,-0.02532 -0.0253,-0.0067 -0.04863,-0.01122 -0.05943,-0.01189 z m 8.260478,0.161748 c -0.01237,-5.12e-4 -0.01626,0.185043 -0.01705,0.774629 l -10e-4,0.810804 0.04703,0.04651 c 0.0538,0.05378 0.06812,0.05517 0.271301,0.02222 0.26217,-0.04252 0.278649,-0.04878 0.314709,-0.124023 l 0.03204,-0.06666 -0.312643,-0.710551 c -0.17183,-0.390864 -0.320876,-0.728392 -0.331246,-0.749825 -8.52e-4,-0.0017 -0.0017,-0.0027 -0.0026,-0.0031 z m -5.267379,0.28267 c -0.008,0 -0.06934,0.02992 -0.135909,0.06615 -0.26777,0.145775 -0.412197,0.277275 -0.530717,0.483174 -0.0358,0.06212 -0.102728,0.173482 -0.148828,0.248047 -0.11354,0.183629 -0.131843,0.222816 -0.176733,0.373104 -0.0213,0.07128 -0.04243,0.141849 -0.04703,0.156579 -0.006,0.01985 0.0026,0.0281 0.03566,0.03307 0.14252,0.02146 0.552654,-0.0093 0.812353,-0.06098 0.38115,-0.07584 0.854685,-0.262899 1.152385,-0.455269 l 0.101802,-0.06563 -0.189652,-0.09922 c -0.34945,-0.182933 -0.561573,-0.34099 -0.756543,-0.563273 -0.0558,-0.0636 -0.108489,-0.115755 -0.116789,-0.115755 z m 2.586922,0.08992 c -0.0238,0.0012 -0.04566,0.01204 -0.06976,0.03101 -0.0248,0.01949 -0.05153,0.05208 -0.05943,0.07286 -0.0292,0.07683 -1.31e-4,0.132047 0.150379,0.283187 0.533569,0.535737 1.203374,0.860577 1.891874,0.917774 0.22805,0.01894 0.235849,0.01913 0.294039,-0.0052 0.0853,-0.03565 0.11898,-0.137936 0.07338,-0.223242 -0.029,-0.05426 -0.07327,-0.06931 -0.241845,-0.08113 -0.70207,-0.04923 -1.270324,-0.314508 -1.816944,-0.848527 -0.10827,-0.105777 -0.169262,-0.149509 -0.221692,-0.146761 z m 3.849378,0.798917 -0.164331,0.146761 c -0.0904,0.08078 -0.171018,0.159303 -0.179318,0.17415 -0.008,0.01485 -0.0101,0.02687 -0.0031,0.02687 0.0206,0 0.363655,-0.174138 0.399975,-0.203089 l 0.03462,-0.02842 -0.04341,-0.05788 z" /></g></svg>
