<?xml version="1.0" encoding="UTF-8" standalone="no"?>
<!-- Created with Inkscape (http://www.inkscape.org/) -->

<svg
   width="7.2856598mm"
   height="9.3651505mm"
   viewBox="0 0 7.2856598 9.3651505"
   version="1.1"
   id="svg5"
   sodipodi:docname="2023-CV.svg"
   inkscape:version="1.2.1 (9c6d41e, 2022-07-14)"
   xml:space="preserve"
   xmlns:inkscape="http://www.inkscape.org/namespaces/inkscape"
   xmlns:sodipodi="http://sodipodi.sourceforge.net/DTD/sodipodi-0.dtd"
   xmlns="http://www.w3.org/2000/svg"
   xmlns:svg="http://www.w3.org/2000/svg"><sodipodi:namedview
     id="namedview7"
     pagecolor="#ffffff"
     bordercolor="#000000"
     borderopacity="0.25"
     inkscape:showpageshadow="2"
     inkscape:pageopacity="0.0"
     inkscape:pagecheckerboard="0"
     inkscape:deskcolor="#d1d1d1"
     inkscape:document-units="mm"
     showgrid="false"
     inkscape:zoom="0.69383979"
     inkscape:cx="250.77835"
     inkscape:cy="435.97961"
     inkscape:window-width="2560"
     inkscape:window-height="1387"
     inkscape:window-x="1512"
     inkscape:window-y="25"
     inkscape:window-maximized="0"
     inkscape:current-layer="layer1" /><defs
     id="defs2" /><g
     inkscape:label="Layer 1"
     inkscape:groupmode="layer"
     id="layer1"
     transform="translate(7.5092098,-112.22868)"><path
       style="fill:#000000;fill-opacity:1;stroke-width:0.0121382"
       d="m -4.0792904,121.52878 c -0.38929,-0.14818 -0.66925,-0.28797 -0.9832,-0.49092 -0.49581,-0.32051 -0.96153,-0.77408 -1.3204,-1.28598 -0.52689,-0.75154 -0.89071,-1.72823 -1.04552,-2.80673 -0.0731,-0.50919 -0.0721,-0.48069 -0.0768,-2.29045 l -0.004,-1.66532 0.0947,-0.0439 c 0.13296,-0.0616 0.39315,-0.16293 0.58626,-0.22819 0.7133,-0.24106 1.41143,-0.38822 2.20915,-0.46569 0.28334,-0.0275 1.15379,-0.0312 1.43838,-0.006 0.51884,0.0458 1.06549,0.13584 1.52942,0.25197 0.48123,0.12048 1.03702998,0.30823 1.34504998,0.45437 l 0.0827,0.0392 -0.005,1.70088 c -0.005,1.65022 -0.006,1.70812 -0.0314,1.94365 -0.11893,1.08688 -0.38328,1.95643 -0.83486998,2.74631 -0.46789,0.81838 -1.16843,1.49442 -1.97078,1.90187 -0.31562,0.16027 -0.70011,0.31053 -0.79319,0.30997 -0.031,-1.8e-4 -0.11602,-0.0253 -0.22035,-0.065 z m 0.49123,-0.45149 c 0.48985,-0.19714 0.97633,-0.51562 1.3707,-0.89732 0.63467,-0.61429 1.09211,-1.44208 1.35493998,-2.45192 0.13503,-0.5188 0.2043,-0.99764 0.23125,-1.59857 l 0.007,-0.16626 -0.0467,-0.0195 c -0.0826,-0.0346 -0.38209998,-0.1403 -0.53728998,-0.18964 -0.29426,-0.0936 -0.96437,-0.26196 -0.99792,-0.25078 -0.006,0.002 0.0119,0.0309 0.0395,0.0643 0.1488,0.17938 0.23743,0.39849 0.24425,0.60378 0.002,0.0517 0.005,0.094 0.007,0.0941 0.002,3e-5 0.0343,-0.009 0.0712,-0.0195 0.0893,-0.0259 0.12483,-0.0118 0.12483,0.0499 0,0.0547 -0.0698,0.13403 -0.15395,0.1752 -0.0791,0.0387 -0.0941,0.0531 -0.16423,0.1586 -0.10092,0.15168 -0.25327,0.29022 -0.48294,0.43915 -0.16506,0.10703 -0.42324,0.22572 -0.53711,0.24694 -0.025,0.005 -0.0455,0.0123 -0.0455,0.017 0,0.005 0.0298,0.0342 0.0662,0.0656 0.0411,0.0355 0.0814,0.0858 0.1062,0.1326 0.0505,0.0953 0.0795,0.11208 0.33132,0.19259 0.2178,0.0696 0.30051,0.10703 0.32744,0.14813 0.064,0.0977 0.007,0.32874 -0.114,0.46147 -0.0291,0.0319 -0.0486,0.067 -0.053,0.0954 -0.0111,0.0716 -0.0443,0.12857 -0.0919,0.15822 -0.0379,0.0236 -0.0563,0.0267 -0.12919,0.0222 -0.0467,-0.003 -0.15871,-0.005 -0.24884,-0.005 -0.1402,7e-4 -0.17964,0.006 -0.2731,0.0331 -0.36046,0.10621 -0.73054,0.38684 -0.96193,0.72942 -0.12382,0.18332 -0.24299,0.48196 -0.29305,0.73437 -0.0249,0.12536 -0.0496,0.31378 -0.0498,0.37931 -1.8e-4,0.0569 0.0195,0.0368 0.0359,-0.0364 0.027,-0.12132 0.10978,-0.34338 0.18897,-0.50676 0.14458,-0.29832 0.33361,-0.54814 0.53173,-0.70276 0.10457,-0.0816 0.24043,-0.16162 0.28118,-0.16557 0.0632,-0.006 0.0667,0.008 0.0354,0.14231 -0.0106,0.0455 -0.0191,0.12639 -0.019,0.17979 7.1e-4,0.33881 0.28153,0.52417 0.84548,0.55806 0.0667,0.004 0.13938,0.0101 0.16137,0.0135 l 0.04,0.006 -0.0825,0.0788 c -0.3225,0.30805 -0.80569,0.61331 -1.25512,0.79297 l -0.12877,0.0515 -0.13354,-0.0547 c -0.41917,-0.17168 -0.79261,-0.39639 -1.13079,-0.68044 l -0.1017,-0.0854 0.008,-0.12179 c 0.0349,-0.50964 0.2179,-1.09856 0.52928,-1.70357 0.0665,-0.12925 0.12095,-0.23613 0.12095,-0.23753 0,-0.002 -0.0505,-3.6e-4 -0.11228,0.002 -0.12635,0.006 -0.21938,-0.0135 -0.34447,-0.0703 -0.20529,-0.0931 -0.34065,-0.23931 -0.42873,-0.46315 -0.0241,-0.0611 -0.0567,-0.11905 -0.0823,-0.14581 -0.0401,-0.042 -0.0411,-0.0451 -0.0187,-0.0571 0.0317,-0.017 0.20646,-0.0382 0.31467,-0.0382 0.10573,0 0.25343,0.0192 0.34409,0.0447 0.16961,0.0477 0.36477,0.18552 0.4259,0.30075 0.0161,0.0303 0.0327,0.0552 0.0367,0.0552 0.0196,0 0.0646,-0.15917 0.0691,-0.24393 0.009,-0.17196 -0.061,-0.25021 -0.28531,-0.31934 -0.14862,-0.0458 -0.47869,-0.14314 -0.82615,-0.24366 -0.36463,-0.10548 -0.46541,-0.14184 -0.64241,-0.23177 -0.35207,-0.17889 -0.64171,-0.44436 -0.7262,-0.66558 -0.0117,-0.0306 -0.0271,-0.0558 -0.0342,-0.0558 -0.0166,0 -0.21744,0.0742 -0.23005,0.085 -0.021,0.0179 0.0285,0.67569 0.0716,0.95284 0.2128,1.36763 0.70741,2.43702 1.48497,3.21055 0.45545,0.4531 0.96981,0.78299 1.57227,1.00841 l 0.12113,0.0453 0.0731,-0.0278 c 0.0402,-0.0153 0.12482,-0.0486 0.18804,-0.074 z m 0.5353,-3.98613 c 0.25876,-0.0867 0.59558,-0.29771 0.75319,-0.47187 0.16826,-0.18593 0.21554,-0.45663 0.11457,-0.65589 -0.0764,-0.15071 -0.2689,-0.23067 -0.51237,-0.2128 -0.12663,0.009 -0.1499,5.8e-4 -0.1499,-0.0561 0,-0.0787 0.11953,-0.12553 0.31863,-0.12497 0.0808,2.3e-4 0.11835,-0.004 0.11835,-0.0135 0,-0.008 -0.0232,-0.0363 -0.0516,-0.0639 l -0.0516,-0.05 -0.18207,-0.0254 c -0.36,-0.0501 -0.86788,-0.0903 -0.86788,-0.0687 0,0.005 0.0265,0.0388 0.0589,0.0751 0.1115,0.1251 0.16629,0.28047 0.13723,0.38914 -0.008,0.0313 -0.0777,0.1972 -0.15405,0.36875 -0.0764,0.17156 -0.14704,0.34671 -0.15706,0.38923 -0.0512,0.21743 0.003,0.39032 0.16076,0.51431 0.0541,0.0425 0.0795,0.0542 0.12341,0.0571 0.0966,0.006 0.23093,-0.0136 0.34143,-0.0507 z m -0.74325,0.0293 c 0.002,-0.002 -0.01,-0.0271 -0.0264,-0.056 -0.0617,-0.10633 -0.0848,-0.19948 -0.0851,-0.34386 -3.7e-4,-0.1677 0.0171,-0.23401 0.12658,-0.48032 0.0462,-0.10396 0.084,-0.20009 0.084,-0.21363 0,-0.0555 -0.0983,-0.15646 -0.22229,-0.22828 -0.0676,-0.0391 -0.0986,-0.0796 -0.0876,-0.11437 0.0167,-0.0527 0.0775,-0.0443 0.23037,0.0322 0.0463,0.0232 0.10582,0.0557 0.13208,0.0724 0.054,0.0341 0.0624,0.0289 0.0752,-0.0464 0.0161,-0.0953 -0.059,-0.23697 -0.18623,-0.35159 l -0.0689,-0.0621 -0.24277,0.008 c -0.54718,0.018 -1.03707,0.078 -1.58752,0.19449 -0.28462,0.0602 -0.47887,0.10989 -0.50082,0.1281 -0.0395,0.0327 -0.0556,0.30489 -0.025,0.41989 0.0407,0.15258 0.17917,0.33236 0.3053,0.39619 0.069,0.0349 0.19809,0.0752 0.20826,0.0651 0.004,-0.004 -0.002,-0.0289 -0.0131,-0.056 -0.0246,-0.0616 -0.0258,-0.15003 -0.002,-0.16963 0.0379,-0.0314 0.0708,-0.0101 0.0996,0.0644 0.0679,0.17584 0.15627,0.23058 0.53227,0.33001 0.34346,0.0908 0.5846,0.16444 0.66154,0.20196 0.0554,0.0271 0.10629,0.0665 0.17091,0.13273 l 0.092,0.0942 0.16289,-0.007 c 0.0896,-0.004 0.16474,-0.008 0.167,-0.0104 z m -2.57058,-0.9961 c -0.0149,-0.0804 -0.0159,-0.26309 -0.002,-0.34794 0.006,-0.0319 0.006,-0.0599 0.002,-0.062 -0.008,-0.005 -0.30378,0.0849 -0.31369,0.0948 -0.0181,0.0181 0.0855,0.19034 0.16959,0.2821 0.0623,0.0679 0.14695,0.13171 0.15254,0.11492 0.002,-0.006 -0.002,-0.0435 -0.009,-0.0818 z m 2.629,-1.16901 c 0.0375,-0.017 0.0543,-0.0339 0.0659,-0.0657 0.0135,-0.0371 0.0269,-0.0475 0.10134,-0.0786 0.24455,-0.10178 0.57262,-0.14889 1.02248,-0.14681 0.23934,8e-4 0.29832,-0.014 0.34357,-0.0883 0.0239,-0.0392 0.0246,-0.059 0.0246,-0.75875 3e-5,-0.5427 -0.003,-0.72065 -0.0144,-0.7274 -0.008,-0.005 -0.0378,-0.008 -0.0663,-0.006 l -0.0518,0.002 -0.003,-0.0946 -0.003,-0.0946 -0.0547,0.002 -0.0547,0.002 -8e-4,-0.0744 c -8e-4,-0.062 -0.006,-0.0782 -0.0286,-0.0967 -0.04,-0.0324 -0.0624,-0.0283 -0.17364,0.0318 -0.12888,0.0696 -0.21281,0.0953 -0.4581,0.1403 -0.4474,0.082 -0.65034,0.15482 -0.74491,0.26722 l -0.0288,0.0343 -0.0464,-0.0475 c -0.099,-0.10135 -0.29959,-0.17381 -0.66909,-0.24164 -0.32153,-0.0591 -0.38933,-0.0792 -0.53339,-0.1582 -0.0997,-0.0547 -0.12757,-0.0589 -0.16227,-0.0242 -0.0189,0.0189 -0.0242,0.0405 -0.0242,0.097 v 0.0727 l -0.0576,-0.003 -0.0576,-0.003 -0.003,0.0941 -0.003,0.0941 h -0.0589 c -0.0425,0 -0.0609,0.006 -0.0663,0.0192 -0.004,0.0106 -0.007,0.33419 -0.007,0.71919 3e-5,0.79667 -0.004,0.76218 0.0971,0.81166 0.0511,0.025 0.076,0.0271 0.38235,0.0327 0.43799,0.008 0.67585,0.0451 0.91102,0.14222 0.0733,0.0302 0.0877,0.0413 0.10054,0.0766 0.0307,0.0851 0.20719,0.12227 0.32549,0.0686 z m -0.27955,-0.25287 c -0.10008,-0.0669 -0.32846,-0.12701 -0.60838,-0.16017 -0.41909,-0.0496 -0.49591,-0.0613 -0.53745,-0.0816 l -0.0451,-0.0221 -0.003,-0.81649 -0.003,-0.81651 0.0471,0.0298 c 0.1128,0.0712 0.26501,0.11813 0.53564,0.16512 0.11683,0.0203 0.2636,0.0504 0.32617,0.067 0.12648,0.0335 0.29961,0.11022 0.33243,0.1474 0.0199,0.0226 0.0211,0.0734 0.0183,0.77569 l -0.003,0.75151 z m 0.23523,-0.71318 v -0.7572 l 0.0415,-0.0317 c 0.10316,-0.0787 0.31133,-0.14359 0.63818,-0.19896 0.23572,-0.0399 0.41721,-0.094 0.51685,-0.15403 l 0.0658,-0.0396 v 0.8121 0.81209 l -0.0273,0.0175 c -0.0447,0.0286 -0.11031,0.0408 -0.39753,0.074 -0.15021,0.0174 -0.31954,0.0397 -0.37628,0.0497 -0.14989,0.0264 -0.33354,0.0873 -0.40187,0.13333 l -0.0594,0.0399 z m -2.56046,0.5559 c 0.0364,-0.0415 0.0449,-0.0451 0.10959,-0.0468 0.0521,-0.002 0.0846,-0.0103 0.12651,-0.0349 0.0582,-0.0341 0.12003,-0.11562 0.13319,-0.17557 0.006,-0.0255 0.0229,-0.04 0.0773,-0.065 0.0827,-0.0379 0.13529,-0.0769 0.13529,-0.10012 0,-0.009 -0.0213,-0.0579 -0.0474,-0.10826 l -0.0474,-0.0916 0.0178,-0.0578 c 0.0322,-0.10411 -0.002,-0.21781 -0.0866,-0.29257 -0.024,-0.021 -0.0482,-0.0383 -0.0537,-0.0383 -0.006,0 -0.0128,-0.0342 -0.0163,-0.0759 -0.003,-0.0417 -0.0148,-0.0964 -0.0253,-0.12138 -0.0221,-0.0526 -0.038,-0.0553 -0.16529,-0.0286 -0.0779,0.0163 -0.0783,0.0162 -0.1253,-0.0178 -0.0686,-0.0497 -0.15642,-0.0652 -0.236,-0.0415 -0.0347,0.0103 -0.0784,0.0316 -0.0971,0.0474 -0.0331,0.0279 -0.036,0.0282 -0.11285,0.0121 -0.0434,-0.009 -0.0968,-0.0166 -0.11861,-0.0167 -0.0474,-3.2e-4 -0.0587,0.0215 -0.0799,0.15365 -0.0131,0.0819 -0.0169,0.0893 -0.0639,0.12332 -0.0895,0.0648 -0.12531,0.19364 -0.0883,0.31728 0.012,0.0402 0.0102,0.0502 -0.017,0.0934 -0.0168,0.0267 -0.0388,0.0725 -0.049,0.10204 -0.0226,0.0659 -0.0197,0.0697 0.10251,0.13169 0.0813,0.0413 0.0901,0.0494 0.10031,0.0924 0.007,0.0319 0.0315,0.0675 0.074,0.11004 0.0528,0.0528 0.0739,0.0652 0.13161,0.0772 0.0378,0.008 0.0792,0.011 0.092,0.007 0.0169,-0.006 0.0306,0.003 0.0501,0.0303 0.0148,0.0207 0.054,0.0592 0.0873,0.0855 l 0.0604,0.0478 0.0462,-0.0366 c 0.0254,-0.0201 0.064,-0.0568 0.0857,-0.0815 z m -0.18551,-0.0239 -0.0448,-0.0448 0.0503,-0.0464 0.0503,-0.0464 0.0431,0.0396 c 0.0237,0.0219 0.0456,0.0411 0.0486,0.0429 0.006,0.004 -0.0858,0.0999 -0.0958,0.0999 -0.004,0 -0.027,-0.0202 -0.0516,-0.0448 z m -0.27352,-0.13647 c -0.0577,-0.0362 -0.0878,-0.0927 -0.0878,-0.16487 -5e-5,-0.0874 0.0398,-0.14197 0.12765,-0.17483 0.037,-0.0138 0.0776,-0.0252 0.0899,-0.0252 0.0346,0 0.0402,0.0347 0.0119,0.0744 -0.049,0.0687 0.008,0.11287 0.0614,0.0475 0.0254,-0.0311 0.0383,-0.038 0.059,-0.0315 0.023,0.007 0.0264,0.0172 0.0264,0.0766 0,0.0794 -0.0323,0.15484 -0.0815,0.19056 -0.0487,0.0354 -0.15623,0.0392 -0.20684,0.007 z m 0.46125,-7.2e-4 c -0.0663,-0.0405 -0.0888,-0.0902 -0.0851,-0.18821 0.003,-0.0752 0.006,-0.0854 0.0282,-0.0885 0.0165,-0.002 0.0306,0.007 0.0414,0.0271 0.0172,0.0322 0.0523,0.05 0.0731,0.0372 0.02,-0.0123 0.014,-0.0491 -0.0137,-0.0844 -0.0235,-0.0299 -0.0242,-0.0347 -0.007,-0.052 0.0164,-0.0164 0.0266,-0.017 0.0733,-0.004 0.0831,0.0233 0.12844,0.0565 0.15411,0.11308 0.0291,0.0643 0.0293,0.0988 7.2e-4,0.16173 -0.0433,0.0953 -0.17376,0.13361 -0.26528,0.0778 z m -0.7029,-0.23919 -0.0627,-0.0298 0.0182,-0.0446 c 0.0348,-0.0851 0.0419,-0.0858 0.1605,-0.0176 0.002,0.002 -0.002,0.0102 -0.009,0.0195 -0.008,0.009 -0.0207,0.036 -0.0291,0.0595 l -0.0151,0.0427 z m 1.06412,0.007 c 0,-0.007 -0.009,-0.0329 -0.0206,-0.0568 -0.0147,-0.031 -0.0166,-0.0448 -0.006,-0.0483 0.008,-0.002 0.0335,-0.0178 0.0571,-0.0339 l 0.0429,-0.029 0.0303,0.0599 c 0.0167,0.033 0.0303,0.0627 0.0303,0.0661 0,0.01 -0.0942,0.0553 -0.11482,0.0553 -0.0103,0 -0.0187,-0.006 -0.0187,-0.0134 z m -0.57178,-0.11408 c -0.0674,-0.0367 -0.0976,-0.14114 -0.0607,-0.21012 0.038,-0.0711 0.16229,-0.0987 0.2244,-0.0498 0.0406,0.0319 0.0682,0.0845 0.0682,0.13005 0,0.0428 -0.0444,0.11184 -0.0853,0.13253 -0.0395,0.02 -0.10719,0.0188 -0.14659,-0.002 z m -0.38449,-0.087 c -0.065,-0.032 -0.0937,-0.0835 -0.0937,-0.16795 0,-0.0577 0.006,-0.0808 0.0286,-0.11106 0.0395,-0.0527 0.10894,-0.0822 0.17316,-0.0735 0.0618,0.008 0.10116,0.0361 0.15293,0.10805 0.0339,0.0471 0.0371,0.0574 0.0233,0.0762 -0.014,0.0191 -0.0214,0.02 -0.0602,0.007 -0.0517,-0.017 -0.069,-0.01 -0.069,0.0284 0,0.0218 0.0103,0.0308 0.0486,0.0423 0.0377,0.0113 0.0485,0.0206 0.0485,0.0414 -9e-5,0.0216 -0.0126,0.031 -0.0648,0.0481 -0.08,0.0263 -0.1356,0.0266 -0.18739,8e-4 z m 0.73417,-0.002 c -0.0509,-0.0169 -0.0578,-0.0232 -0.0547,-0.0497 0.002,-0.0229 0.0134,-0.0329 0.0436,-0.0407 0.0469,-0.0121 0.0619,-0.0399 0.0358,-0.0661 -0.0158,-0.0159 -0.0248,-0.0162 -0.0623,-0.002 -0.0395,0.0143 -0.0454,0.0136 -0.0608,-0.007 -0.0153,-0.021 -0.0118,-0.03 0.0363,-0.0925 0.0595,-0.0773 0.11061,-0.10236 0.18771,-0.092 0.17241,0.0231 0.21934,0.24659 0.0726,0.3455 -0.048,0.0323 -0.11262,0.0342 -0.19841,0.006 z m -0.41277,-0.30944 c -0.0369,-0.0535 -0.0448,-0.0758 -0.0448,-0.12495 9e-5,-0.10809 0.0762,-0.18711 0.1802,-0.18721 0.11271,-9e-5 0.19053,0.0769 0.18927,0.18725 -5.8e-4,0.0513 -0.008,0.0721 -0.0467,0.12527 -0.0253,0.035 -0.0523,0.0636 -0.06,0.0635 -0.0291,-3.7e-4 -0.0426,-0.0198 -0.0465,-0.0667 -0.003,-0.0425 -0.008,-0.0484 -0.0343,-0.0484 -0.027,0 -0.0311,0.006 -0.0364,0.0546 -0.005,0.0434 -0.0112,0.0554 -0.031,0.0582 -0.0184,0.002 -0.0367,-0.0135 -0.0698,-0.0615 z m -0.22471,-0.12692 c -0.0507,-0.005 -0.0522,-0.006 -0.0455,-0.0403 0.004,-0.0196 0.01,-0.0511 0.0134,-0.0699 0.006,-0.0334 0.008,-0.034 0.0666,-0.0265 0.0331,0.004 0.063,0.0106 0.0665,0.0142 0.0118,0.0118 -0.02,0.13146 -0.0345,0.1293 -0.008,-8e-4 -0.0378,-0.004 -0.0666,-0.006 z m 0.63772,-0.0374 c -0.003,-0.0247 -0.0101,-0.054 -0.0146,-0.0653 -0.006,-0.0162 1.8e-4,-0.0218 0.0322,-0.027 0.10477,-0.017 0.10014,-0.0191 0.11201,0.0509 0.006,0.0352 0.009,0.0659 0.006,0.0681 -0.002,0.002 -0.0328,0.007 -0.067,0.0111 l -0.0622,0.007 z m 5.05223,1.09238 c 0.0623,-0.0623 0.0713,-0.0671 0.12939,-0.0697 0.11657998,-0.005 0.21266998,-0.0768 0.25285998,-0.18863 0.0159,-0.0441 0.0309,-0.0646 0.0537,-0.0733 0.0591,-0.0225 0.10477,-0.0469 0.13917,-0.0744 l 0.0343,-0.0275 -0.0258,-0.0656 c -0.0143,-0.036 -0.0372,-0.0815 -0.0511,-0.10101 -0.0225,-0.0316 -0.0237,-0.0407 -0.0108,-0.0836 0.0375,-0.12517 0.003,-0.24761 -0.0895,-0.31731 -0.0491,-0.0371 -0.0517,-0.0423 -0.0649,-0.13276 -0.0225,-0.15449 -0.0321,-0.16063 -0.19674,-0.12564 -0.0726,0.0155 -0.0808,0.0151 -0.10316998,-0.005 -0.0922,-0.0823 -0.24003,-0.0883 -0.33985,-0.0139 -0.0441,0.0329 -0.0458,0.0331 -0.11949,0.0177 -0.12777,-0.0268 -0.15204,-0.023 -0.173,0.0272 -0.01,0.0239 -0.0215,0.0772 -0.0255,0.11835 -0.007,0.0704 -0.0104,0.0772 -0.0572,0.11186 -0.0724,0.0536 -0.10896,0.12685 -0.10884,0.21744 4e-5,0.0403 0.007,0.0861 0.0153,0.10152 0.0134,0.0248 0.009,0.0402 -0.0355,0.13051 -0.0279,0.0563 -0.0477,0.11032 -0.0439,0.12004 0.008,0.0222 0.0945,0.077 0.15209,0.097 0.0359,0.0124 0.0472,0.025 0.0635,0.0706 0.0443,0.12369 0.12904,0.1902 0.25,0.19613 0.0687,0.003 0.0722,0.006 0.15298,0.0842 0.0961,0.0939 0.0936,0.0941 0.20198,-0.0143 z m -0.16301,-0.0506 c -0.0259,-0.0266 -0.0447,-0.0498 -0.0418,-0.0515 0.003,-0.002 0.0256,-0.0219 0.0503,-0.0446 l 0.0448,-0.0413 0.0339,0.0363 c 0.0187,0.0199 0.0421,0.0392 0.0521,0.0428 0.0139,0.005 0.006,0.0184 -0.0298,0.0567 -0.0264,0.0275 -0.0512,0.0501 -0.0552,0.0501 -0.004,0 -0.0284,-0.0218 -0.0544,-0.0483 z m -0.29745,-0.15325 c -0.0594,-0.0537 -0.0799,-0.11628 -0.0609,-0.18665 0.0191,-0.0708 0.057,-0.1069 0.14647,-0.13926 0.0786,-0.0284 0.0799,-0.0285 0.0945,-0.005 0.0124,0.0198 0.0106,0.0298 -0.0107,0.0597 -0.0523,0.0735 0.002,0.11615 0.0603,0.047 0.0514,-0.0616 0.0737,-0.0439 0.0737,0.0583 -8e-5,0.137 -0.0663,0.20963 -0.19109,0.20972 -0.0561,4e-5 -0.0695,-0.005 -0.11216,-0.0438 z m 0.50358,0.0327 c -0.0725,-0.0323 -0.11531,-0.11109 -0.11531,-0.21231 0,-0.0577 0.003,-0.0674 0.0268,-0.0748 0.0211,-0.006 0.0339,2e-5 0.0599,0.0311 0.0542,0.0649 0.10866,0.0212 0.0596,-0.0478 -0.0207,-0.029 -0.0233,-0.0415 -0.013,-0.0608 0.0129,-0.0241 0.0137,-0.0241 0.0947,0.006 0.09,0.0326 0.12913,0.07 0.14905,0.14281 0.0173,0.0633 -0.002,0.12793 -0.0549,0.17868 -0.0369,0.0358 -0.0519,0.0418 -0.11251,0.045 -0.0384,0.002 -0.0809,-8e-4 -0.0942,-0.007 z m 0.34593998,-0.23506 c 0,-0.009 -0.0109,-0.0371 -0.0241,-0.0631 -0.0133,-0.026 -0.0228,-0.0476 -0.0212,-0.0481 0.002,-4.6e-4 0.0262,-0.0134 0.0547,-0.0286 0.0286,-0.0153 0.0578,-0.0242 0.065,-0.0198 0.007,0.005 0.0231,0.0304 0.0353,0.0576 0.0216,0.0483 0.0216,0.0499 -8e-4,0.0658 -0.0127,0.009 -0.0424,0.0243 -0.0659,0.0341 -0.034,0.0142 -0.0427,0.0147 -0.0427,0.002 z m -1.08332998,-0.0218 c -0.0251,-0.0132 -0.0455,-0.0268 -0.0455,-0.0303 0,-0.003 0.0137,-0.0331 0.0303,-0.0661 l 0.0303,-0.06 0.0442,0.03 c 0.0242,0.0165 0.0516,0.0299 0.0607,0.0299 0.0126,0 0.0107,0.0109 -0.008,0.0453 -0.0134,0.025 -0.0243,0.0523 -0.0243,0.0607 0,0.022 -0.0353,0.0181 -0.088,-0.01 z m 0.51755,-0.096 c -0.0141,-0.006 -0.0369,-0.0247 -0.0507,-0.0423 -0.0793,-0.10086 -0.0127,-0.24928 0.11193,-0.24928 0.11111,0 0.18871,0.10345 0.15131,0.20172 -0.0311,0.0818 -0.12951,0.12337 -0.2125,0.0898 z m -0.40586,-0.10043 c -0.1518,-0.1023 -0.0964,-0.32999 0.0841,-0.34546 0.0744,-0.006 0.12718,0.0223 0.18437,0.10028 0.0402,0.0547 0.0431,0.0637 0.0281,0.0844 -0.0152,0.0208 -0.0211,0.0215 -0.0606,0.007 -0.0369,-0.0133 -0.0465,-0.0131 -0.0611,0.002 -0.0248,0.0249 -0.008,0.0564 0.0365,0.0679 0.0283,0.007 0.0391,0.0176 0.0418,0.0401 0.003,0.0269 -0.004,0.0326 -0.0618,0.0509 -0.0886,0.0279 -0.14262,0.026 -0.19127,-0.006 z m 0.74535998,0.008 c -0.0369,-0.013 -0.0518,-0.0258 -0.0559,-0.0476 -0.005,-0.0258 5.2e-4,-0.0317 0.0406,-0.0436 0.052,-0.0156 0.0691,-0.0426 0.0431,-0.0685 -0.0145,-0.0145 -0.0251,-0.0149 -0.0632,-0.002 -0.0405,0.0134 -0.0475,0.0126 -0.0616,-0.006 -0.0138,-0.0189 -0.0104,-0.0292 0.0252,-0.0775 0.057,-0.0772 0.0927,-0.1008 0.1607199,-0.10647 0.18771,-0.0156 0.274,0.23456 0.11755,0.34087 -0.0536,0.0365 -0.12528,0.0406 -0.20639,0.0118 z M -1.3980404,113.64 c -0.0392,-0.0543 -0.0461,-0.0731 -0.0462,-0.12715 -5.1e-4,-0.1864 0.24794,-0.25665 0.34496,-0.0975 0.0155,0.0255 0.0242,0.0612 0.0242,0.10015 4e-5,0.0499 -0.008,0.0719 -0.0439,0.12442 -0.0242,0.0351 -0.0501,0.0638 -0.0576,0.0636 -0.0288,-4.2e-4 -0.0423,-0.02 -0.0462,-0.0667 -0.003,-0.0425 -0.008,-0.0484 -0.0343,-0.0484 -0.0267,0 -0.0308,0.006 -0.0343,0.0484 -0.004,0.0469 -0.0174,0.0663 -0.0465,0.0667 -0.008,9e-5 -0.0347,-0.0285 -0.0601,-0.0635 z m -0.22127,-0.12729 -0.0527,-0.005 0.008,-0.063 c 0.005,-0.0347 0.0104,-0.0663 0.0128,-0.0703 0.004,-0.006 0.12532,0.008 0.13271,0.016 0.009,0.01 -0.025,0.13068 -0.036,0.12885 -0.007,-8e-4 -0.0365,-0.004 -0.0654,-0.007 z m 0.63229998,-0.0532 c -0.008,-0.0349 -0.013,-0.0654 -0.0106,-0.0679 0.002,-0.002 0.0322,-0.009 0.0661,-0.0142 0.0691,-0.0109 0.0683,-0.0117 0.0814,0.076 l 0.008,0.0562 -0.0408,1.7e-4 c -0.0225,10e-5 -0.0518,0.003 -0.0651,0.006 -0.0208,0.006 -0.0264,-0.002 -0.0394,-0.0569 z"
       id="path15862" /></g></svg>
